<?xml version="1.0" standalone="no"?>
<!DOCTYPE svg PUBLIC "-//W3C//DTD SVG 20010904//EN"
 "http://www.w3.org/TR/2001/REC-SVG-20010904/DTD/svg10.dtd">
<svg version="1.0" xmlns="http://www.w3.org/2000/svg"
 width="387.000000pt" height="95.000000pt" viewBox="0 0 387.000000 95.000000"
 preserveAspectRatio="xMidYMid meet">

<g transform="translate(0.000000,95.000000) scale(0.100000,-0.100000)"
fill="#000000" stroke="none">
<path d="M1808 580 l-188 -80 -100 0 c-196 0 -365 -29 -475 -83 -48 -23 -85
-55 -85 -74 0 -31 31 -70 67 -86 42 -18 139 -37 148 -29 3 3 5 19 5 36 0 78
75 146 160 146 80 0 146 -57 164 -142 4 -15 16 -37 28 -48 21 -19 34 -20 355
-20 l333 0 0 33 c0 96 56 167 138 175 86 8 154 -45 172 -134 13 -61 0 -58 124
-27 126 31 171 73 148 137 -15 40 -15 83 -2 91 24 15 1 27 -142 74 -232 75
-368 103 -528 108 l-135 4 -187 -81z m517 40 c119 -24 282 -69 375 -106 l67
-26 1 -42 c0 -22 3 -58 7 -79 5 -24 3 -42 -5 -52 -16 -20 -108 -53 -168 -61
l-49 -6 -7 41 c-12 75 -91 141 -170 141 -53 0 -86 -17 -134 -68 -43 -46 -44
-47 -38 -17 3 17 8 51 12 76 l6 46 76 6 c118 9 214 49 185 78 -5 5 -65 21
-134 36 -97 21 -152 27 -251 28 -81 0 -127 4 -125 10 10 29 187 26 352 -5z
m-375 -18 c0 -4 -29 -25 -65 -46 -36 -21 -68 -42 -71 -47 -3 -5 -31 -9 -62 -9
-34 0 -52 4 -46 9 14 14 207 99 227 100 9 1 17 -3 17 -7z m210 -2 c64 0 73 -8
59 -51 -6 -19 -19 -40 -27 -46 -17 -14 -217 -19 -225 -5 -3 4 5 27 17 52 18
37 27 46 56 51 19 4 44 5 55 3 11 -2 40 -4 65 -4z m208 -36 c45 -9 82 -21 82
-26 0 -16 -54 -29 -142 -35 l-88 -6 16 47 c12 35 20 46 33 42 9 -2 53 -12 99
-22z m-398 -1 c0 -5 -9 -23 -20 -41 -18 -29 -25 -33 -55 -30 -47 4 -47 17 1
50 37 26 74 36 74 21z m-221 -115 c-12 -22 -8 -155 5 -176 5 -9 65 -12 202
-12 193 0 195 0 219 24 29 29 36 22 28 -27 l-6 -37 -316 0 c-239 0 -321 3
-333 13 -8 6 -21 33 -28 59 -30 113 -158 170 -261 117 -33 -16 -51 -19 -95
-13 -67 8 -66 24 2 42 89 22 177 29 387 31 l208 1 -12 -22z m447 -40 c-4 -35
-15 -76 -25 -93 l-17 -30 -185 -3 c-212 -3 -209 -4 -209 87 0 42 5 60 22 78
21 23 25 23 221 23 l200 0 -7 -62z m-1058 -24 c34 -5 52 -11 52 -20 0 -11 -22
-14 -95 -14 -75 0 -95 3 -95 14 0 25 41 31 138 20z m26 -52 c2 -4 -1 -24 -7
-45 -13 -41 -25 -44 -92 -26 -48 13 -75 35 -75 61 0 16 9 18 84 18 47 0 87 -3
90 -8z"/>
<path d="M163 493 c-8 -3 -13 -22 -13 -44 0 -33 3 -39 21 -39 18 0 20 5 16 40
-5 46 -7 49 -24 43z"/>
<path d="M200 474 c0 -17 6 -24 19 -24 11 0 22 -9 26 -19 6 -21 45 -25 45 -5
0 7 3 19 6 27 7 18 -23 36 -66 42 -26 3 -30 0 -30 -21z"/>
<path d="M3343 493 c-8 -3 -13 -22 -13 -44 0 -33 3 -39 21 -39 18 0 20 5 16
40 -5 46 -7 49 -24 43z"/>
<path d="M3380 474 c0 -17 6 -24 19 -24 11 0 22 -9 26 -19 6 -21 45 -25 45 -5
0 7 3 19 6 27 7 18 -23 36 -66 42 -26 3 -30 0 -30 -21z"/>
<path d="M3620 485 c0 -20 38 -54 62 -55 43 -1 13 48 -39 64 -18 6 -23 3 -23
-9z"/>
<path d="M405 459 c-14 -18 -24 -37 -22 -43 3 -6 1 -33 -3 -59 -4 -26 -4 -47
-1 -47 3 0 6 -15 5 -32 -2 -70 37 -103 93 -76 15 7 29 22 31 32 3 16 0 18 -19
12 -64 -20 -64 -21 -64 94 0 98 1 105 20 105 18 0 20 -8 23 -82 2 -64 6 -82
19 -87 24 -10 33 4 33 54 0 82 -6 119 -25 140 -26 29 -59 25 -90 -11z"/>
<path d="M602 383 c2 -77 7 -108 16 -111 7 -2 16 5 19 17 3 14 13 21 28 21 36
0 55 11 55 31 0 10 5 19 11 19 5 0 7 5 4 10 -3 6 -2 10 2 10 5 0 8 15 8 33 0
49 -34 77 -96 77 l-50 0 3 -107z m68 66 c23 -4 25 -9 26 -55 1 -49 0 -51 -25
-50 -24 1 -26 5 -29 54 -2 28 -8 52 -13 52 -6 0 -7 5 -3 11 4 7 9 8 13 1 3 -5
17 -12 31 -13z m-20 -118 c0 -5 -7 -14 -15 -21 -12 -10 -15 -10 -15 2 0 8 3
18 7 21 9 10 23 9 23 -2z"/>
<path d="M820 460 c0 -25 4 -30 25 -30 28 0 32 12 10 30 -13 11 -13 15 -3 21
9 6 6 9 -9 9 -19 0 -23 -6 -23 -30z"/>
<path d="M2927 478 c-13 -10 -20 -32 -24 -79 -5 -63 -4 -65 21 -77 l27 -12 -5
58 c-6 75 0 84 52 78 32 -4 42 -2 42 10 0 8 -3 14 -7 15 -5 0 -15 2 -23 5 -51
13 -67 14 -83 2z"/>
<path d="M3143 420 c-7 -56 -7 -67 4 -58 10 8 13 6 13 -11 0 -12 -6 -21 -16
-21 -8 0 -12 -4 -9 -10 3 -5 2 -10 -3 -10 -5 0 -13 -21 -17 -46 -3 -26 -9 -53
-12 -60 -3 -10 3 -14 20 -14 22 0 26 5 29 33 2 25 8 33 27 35 26 4 41 -12 41
-45 0 -16 6 -23 20 -23 11 0 20 5 20 11 0 19 -21 154 -30 194 -5 22 -11 52
-15 68 -4 22 -11 27 -34 27 -27 0 -28 -2 -38 -70z m62 -128 c-2 -2 -11 1 -21
6 -20 11 -26 79 -9 98 7 8 14 -5 22 -45 6 -31 10 -58 8 -59z"/>
<path d="M3574 479 c-2 -4 2 -10 8 -12 8 -3 6 -6 -4 -6 -22 -1 -24 -44 -5 -80
19 -37 30 -22 32 45 2 47 -1 61 -12 61 -8 0 -16 -4 -19 -8z"/>
<path d="M3025 420 c6 -9 4 -12 -7 -8 -9 4 -15 0 -15 -8 0 -9 8 -14 21 -12 24
3 28 29 7 36 -9 3 -11 0 -6 -8z"/>
<path d="M252 348 c-6 -24 -10 -33 -11 -20 -1 12 -6 22 -12 22 -5 0 -7 -5 -4
-10 4 -7 -2 -9 -19 -4 -17 4 -26 2 -26 -6 0 -7 -7 -10 -15 -6 -12 4 -15 -6
-15 -64 0 -64 2 -70 21 -70 17 0 20 6 19 38 -4 82 -2 94 18 83 11 -6 24 -32
32 -65 10 -43 18 -56 32 -56 22 0 23 17 4 86 -11 43 -11 53 0 69 18 24 18 45
0 45 -9 0 -19 -17 -24 -42z"/>
<path d="M3432 348 c-6 -24 -10 -33 -11 -20 -1 12 -6 22 -12 22 -5 0 -7 -5 -4
-10 4 -7 -2 -9 -19 -4 -17 4 -26 2 -26 -6 0 -7 -7 -10 -15 -6 -12 4 -15 -6
-15 -64 0 -64 2 -70 21 -70 17 0 20 6 19 38 -1 20 -2 52 -1 69 1 32 2 32 21
16 11 -9 25 -41 31 -70 10 -42 16 -53 32 -53 18 0 19 4 11 43 -10 52 -10 105
1 135 5 16 4 22 -8 22 -10 0 -19 -15 -25 -42z"/>
<path d="M855 363 c-5 -10 -7 -26 -6 -35 1 -12 -3 -16 -12 -12 -12 4 -14 -7
-14 -60 1 -63 2 -66 25 -66 18 0 23 4 18 16 -4 9 -3 22 2 28 12 15 3 106 -10
106 -6 0 -5 6 2 15 7 9 11 18 8 21 -3 3 -9 -3 -13 -13z"/>
<path d="M1261 345 c-57 -49 -63 -127 -15 -185 94 -111 273 10 210 142 -33 70
-136 92 -195 43z m125 0 c66 -28 82 -125 28 -176 -20 -19 -37 -24 -74 -24 -37
0 -54 5 -74 24 -53 50 -38 148 26 176 42 18 51 18 94 0z"/>
<path d="M2308 354 c-35 -18 -58 -62 -58 -110 0 -117 149 -173 224 -84 73 87
18 211 -92 210 -26 -1 -59 -7 -74 -16z m135 -21 c11 -10 26 -32 33 -50 37 -86
-64 -175 -149 -132 -79 40 -74 165 7 200 29 12 85 3 109 -18z"/>
<path d="M3644 323 c19 -85 19 -90 -3 -96 -14 -3 -19 -10 -15 -21 9 -24 30
-19 54 11 24 30 22 69 -5 110 -21 32 -39 30 -31 -4z"/>
<path d="M3004 285 c-4 -8 -4 -22 0 -30 3 -10 -3 -17 -21 -21 -20 -5 -30 -2
-42 15 -18 23 -31 19 -31 -9 0 -46 81 -67 115 -30 17 19 15 50 -5 50 -5 0 -10
8 -10 18 1 15 2 15 11 -2 9 -15 13 -16 20 -5 14 22 11 29 -11 29 -11 0 -23 -7
-26 -15z"/>
<path d="M3557 251 c3 -12 9 -21 14 -21 5 0 9 -7 9 -15 0 -8 5 -15 11 -15 6 0
9 14 7 33 -2 24 -8 33 -25 35 -17 3 -20 -1 -16 -17z"/>
<path d="M600 220 c0 -23 4 -30 20 -30 16 0 20 7 20 30 0 23 -4 30 -20 30 -16
0 -20 -7 -20 -30z"/>
</g>
</svg>
